# xmcd
#
# Track frame offsets: 
#        150
#        22764
#        47017
#        72675
#        96958
#        112779
#        140059
#        154379
#        168678
#        192974
#        209357
#        235090
#        255566
#        272896
#        295391
#        316528
#        329789
#
# Disc length: 4722 seconds
#
# Revision: 0
# Processed by: cddbd v1.5.1PL0 Copyright (c) Steve Scherf et al.
# Submitted via: ExactAudioCopy v0.95a5
#
DISCID=02127011
DTITLE=Govi - All Time Hits 1980-2002
DYEAR=1900
DGENRE=Acoustic guitar
TTITLE0=01. In Wonder
TTITLE1=02. Abundance
TTITLE2=03. Magellan`s Beat
TTITLE3=04. Gypsy Heaven
TTITLE4=05. Looking Into Your Eyes
TTITLE5=06. Spirit Rider
TTITLE6=07. Gitana (Gypsy Woman)
TTITLE7=08. Magic Island
TTITLE8=09. Andalusian Night
TTITLE9=10. Lover`s Moon
TTITLE10=11. Serenade D`Amour
TTITLE11=12. Walking On Clouds
TTITLE12=13. Gypsy Heart
TTITLE13=14. Hanalei Bay
TTITLE14=15. Pied Piper
TTITLE15=16. Garden Of Eden
TTITLE16=17. Sangria
EXTD=
EXTT0=
EXTT1=
EXTT2=
EXTT3=
EXTT4=
EXTT5=
EXTT6=
EXTT7=
EXTT8=
EXTT9=
EXTT10=
EXTT11=
EXTT12=
EXTT13=
EXTT14=
EXTT15=
EXTT16=
PLAYORDER=
